<?xml version="1.0" encoding="UTF-8"?>
<svg version="1.1" xmlns="http://www.w3.org/2000/svg" width="376" height="72">
<path d="M0 0 C124.08 0 248.16 0 376 0 C376 23.76 376 47.52 376 72 C251.92 72 127.84 72 0 72 C0 48.24 0 24.48 0 0 Z " fill="#040D21" transform="translate(0,0)"/>
<path d="M0 0 C26.07 0 52.14 0 79 0 C79 23.76 79 47.52 79 72 C52.93 72 26.86 72 0 72 C0 48.24 0 24.48 0 0 Z " fill="#020100" transform="translate(0,0)"/>
<path d="M0 0 C-0.33 3.3 -0.66 6.6 -1 10 C-2.32 9.67 -3.64 9.34 -5 9 C-7.24522717 10.63788102 -7.24522717 10.63788102 -9.25 12.9375 C-9.95640625 13.68902344 -10.6628125 14.44054688 -11.390625 15.21484375 C-11.92171875 15.80394531 -12.4528125 16.39304687 -13 17 C-12.20207031 17.37382812 -11.40414062 17.74765625 -10.58203125 18.1328125 C-8 20 -8 20 -7.07421875 22.7421875 C-6.94660156 23.77601562 -6.81898437 24.80984375 -6.6875 25.875 C-6.54699219 26.90367188 -6.40648437 27.93234375 -6.26171875 28.9921875 C-6 32 -6 32 -6.20703125 34.6875 C-6.24171815 37.1352238 -6.24171815 37.1352238 -4.25 38.6953125 C-3.5075 39.16710938 -2.765 39.63890625 -2 40.125 C0.25 41.5703125 0.25 41.5703125 2 43 C2 46 2 46 0 48.125 C-3.94423916 50.59014948 -6.35263565 50.85246462 -11 51 C-11.57105469 50.65453125 -12.14210937 50.3090625 -12.73046875 49.953125 C-16.24668372 48.47643575 -19.58920239 49.31229789 -23.25 49.875 C-24.36761719 50.03162109 -24.36761719 50.03162109 -25.5078125 50.19140625 C-27.34014511 50.44981213 -29.17032234 50.72342082 -31 51 C-31 51.66 -31 52.32 -31 53 C-40.76258993 55.64748201 -40.76258993 55.64748201 -44 55 C-46.80043698 51.15669196 -48.02996263 47.04907683 -49.1875 42.5 C-49.36474609 41.84902344 -49.54199219 41.19804688 -49.72460938 40.52734375 C-50.6623539 36.94291489 -51.20660202 33.70458792 -51 30 C-50.01 29.67 -49.02 29.34 -48 29 C-47.26676204 26.98491642 -47.26676204 26.98491642 -47 25 C-46.01 25 -45.02 25 -44 25 C-43.855625 24.360625 -43.71125 23.72125 -43.5625 23.0625 C-43 21 -43 21 -42 20 C-40.22309891 19.77210574 -38.43830032 19.60510212 -36.65234375 19.46484375 C-35.57275391 19.37783203 -34.49316406 19.29082031 -33.38085938 19.20117188 C-32.24455078 19.11416016 -31.10824219 19.02714844 -29.9375 18.9375 C-28.79732422 18.84662109 -27.65714844 18.75574219 -26.48242188 18.66210938 C-23.65524259 18.43735454 -20.82779536 18.21684289 -18 18 C-18.99 17.01 -19.98 16.02 -21 15 C-21.598125 15.33 -22.19625 15.66 -22.8125 16 C-25 17 -25 17 -28 17 C-26.84826645 14.53199953 -25.95216435 12.95216435 -24 11 C-21.625 11.375 -21.625 11.375 -19 12 C-14.62406471 12.01241196 -14.62406471 12.01241196 -11.6875 9.3125 C-10.10965734 7.73705845 -10.10965734 7.73705845 -9 6 C-8.95902218 3.18583884 -8.95902218 3.18583884 -10 1 C-6.61981469 -0.04005702 -3.5219721 -0.08004482 0 0 Z " fill="#211100" transform="translate(68,8)"/>
<path d="M0 0 C-0.33 3.3 -0.66 6.6 -1 10 C-2.32 9.67 -3.64 9.34 -5 9 C-7.24522717 10.63788102 -7.24522717 10.63788102 -9.25 12.9375 C-9.95640625 13.68902344 -10.6628125 14.44054688 -11.390625 15.21484375 C-12.18726563 16.09849609 -12.18726563 16.09849609 -13 17 C-11.7625 17.433125 -11.7625 17.433125 -10.5 17.875 C-8 20 -8 20 -7.66796875 22.42578125 C-7.68593424 24.9661018 -7.78631175 27.46898139 -8 30 C-8.72574219 29.87625 -9.45148437 29.7525 -10.19921875 29.625 C-13.27211186 29.73568491 -13.27211186 29.73568491 -15.45703125 32.625 C-16.25881041 33.73821405 -17.04355635 34.86385697 -17.8125 36 C-18.21919922 36.57234375 -18.62589844 37.1446875 -19.04492188 37.734375 C-20.04474232 39.14588621 -21.02438622 40.57165041 -22 42 C-26.08105062 40.45657029 -29.41572782 38.50065501 -33 36 C-35.95950142 37.37405423 -38.41495396 39.01776932 -41 41 C-42.25414271 34.28137832 -43.38754557 27.84663832 -43 21 C-41.29084726 19.29084726 -38.99238377 19.64861653 -36.65234375 19.46484375 C-35.57275391 19.37783203 -34.49316406 19.29082031 -33.38085938 19.20117188 C-32.24455078 19.11416016 -31.10824219 19.02714844 -29.9375 18.9375 C-28.79732422 18.84662109 -27.65714844 18.75574219 -26.48242188 18.66210938 C-23.65524259 18.43735454 -20.82779536 18.21684289 -18 18 C-18.99 17.01 -19.98 16.02 -21 15 C-21.598125 15.33 -22.19625 15.66 -22.8125 16 C-25 17 -25 17 -28 17 C-26.84826645 14.53199953 -25.95216435 12.95216435 -24 11 C-21.625 11.375 -21.625 11.375 -19 12 C-14.62406471 12.01241196 -14.62406471 12.01241196 -11.6875 9.3125 C-10.10965734 7.73705845 -10.10965734 7.73705845 -9 6 C-8.95902218 3.18583884 -8.95902218 3.18583884 -10 1 C-6.61981469 -0.04005702 -3.5219721 -0.08004482 0 0 Z " fill="#F79306" transform="translate(68,8)"/>
<path d="M0 0 C2.31 0 4.62 0 7 0 C7 23.76 7 47.52 7 72 C4.69 72 2.38 72 0 72 C0 48.24 0 24.48 0 0 Z " fill="#030C20" transform="translate(0,0)"/>
<path d="M0 0 C1.65 0 3.3 0 5 0 C5.33 3.3 5.66 6.6 6 10 C6.66 9.34 7.32 8.68 8 8 C12.15024234 7.45185479 14.31530032 7.59209381 17.9375 9.75 C21.06335924 14.67559637 20.97173645 19.32631297 20 25 C17.875 28.25 17.875 28.25 15 30 C10.85775694 30.57991403 9.51824511 30.34549674 6 28 C5.67 28.66 5.34 29.32 5 30 C3.35 30 1.7 30 0 30 C0 20.1 0 10.2 0 0 Z " fill="#F7F7F8" transform="translate(258,19)"/>
<path d="M0 0 C1.134375 0.020625 2.26875 0.04125 3.4375 0.0625 C6.32943504 6.06882663 8.5792704 12.1853206 10.6875 18.5 C10.95771973 19.30550293 11.22793945 20.11100586 11.50634766 20.94091797 C13.4375 26.80392132 13.4375 26.80392132 13.4375 29.0625 C11.4575 29.0625 9.4775 29.0625 7.4375 29.0625 C6.7775 27.0825 6.1175 25.1025 5.4375 23.0625 C1.8075 22.7325 -1.8225 22.4025 -5.5625 22.0625 C-6.2225 24.0425 -6.8825 26.0225 -7.5625 28.0625 C-9.2125 28.0625 -10.8625 28.0625 -12.5625 28.0625 C-11.2518114 21.730671 -9.58173958 15.68109223 -7.5 9.5625 C-7.0968457 8.34820313 -7.0968457 8.34820313 -6.68554688 7.109375 C-4.31937895 0.07577858 -4.31937895 0.07577858 0 0 Z " fill="#F1F1F2" transform="translate(103.5625,19.9375)"/>
<path d="M0 0 C1.65 0 3.3 0 5 0 C5.33 0.66 5.66 1.32 6 2 C6.66 1.34 7.32 0.68 8 0 C12.23963281 -0.31404687 15.36534398 -0.32617985 19 2 C19.66 1.34 20.32 0.68 21 0 C27.22329773 -0.56575434 27.22329773 -0.56575434 29.7043457 1.24145508 C31.34780391 3.47206173 31.34833418 4.69940245 31.29296875 7.44921875 C31.28330078 8.29677734 31.27363281 9.14433594 31.26367188 10.01757812 C31.23853516 10.89865234 31.21339844 11.77972656 31.1875 12.6875 C31.16719727 14.02651367 31.16719727 14.02651367 31.14648438 15.39257812 C31.11114079 17.59566166 31.06180493 19.79752582 31 22 C29.35 22 27.7 22 26 22 C25.67 16.72 25.34 11.44 25 6 C23.68 5.67 22.36 5.34 21 5 C18.15385976 7.84614024 18.54420924 10.80369142 18.375 14.625 C18.33632812 15.33140625 18.29765625 16.0378125 18.2578125 16.765625 C18.16352276 18.50998524 18.08067109 20.25495691 18 22 C16.35 22 14.7 22 13 22 C12.67 16.39 12.34 10.78 12 5 C7.36980013 5.4452998 7.36980013 5.4452998 6 7 C5.76346477 9.52596259 5.57826308 12.03107207 5.4375 14.5625 C5.39431641 15.27341797 5.35113281 15.98433594 5.30664062 16.71679688 C5.20028223 18.47761912 5.09961154 20.2387832 5 22 C3.35 22 1.7 22 0 22 C0 14.74 0 7.48 0 0 Z " fill="#F6F6F7" transform="translate(221,27)"/>
<path d="M0 0 C1.98 0 3.96 0 6 0 C6.33 3.63 6.66 7.26 7 11 C7.66 10.34 8.32 9.68 9 9 C12.69332324 8.58963075 15.04565116 8.37613238 18.2109375 10.4453125 C20.88717825 14.26684405 20.43455743 17.70704777 20.25 22.25 C20.23195312 23.09046875 20.21390625 23.9309375 20.1953125 24.796875 C20.14830798 26.86507395 20.07656724 28.93268441 20 31 C18.02 31 16.04 31 14 31 C13.67 25.39 13.34 19.78 13 14 C11.02 14 9.04 14 7 14 C6.67 19.61 6.34 25.22 6 31 C4.02 31 2.04 31 0 31 C0 20.77 0 10.54 0 0 Z " fill="#E2E3E5" transform="translate(171,18)"/>
<path d="M0 0 C2.265625 1.60546875 2.265625 1.60546875 4 4 C4.390625 7.234375 4.390625 7.234375 4.25 10.75 C4.21390625 11.92046875 4.1778125 13.0909375 4.140625 14.296875 C4.07101562 15.63492188 4.07101562 15.63492188 4 17 C4.66 17 5.32 17 6 17 C6 18.65 6 20.3 6 22 C2.28400809 22.20086443 1.22791555 22.1519437 -2 20 C-2.99 20.66 -3.98 21.32 -5 22 C-8.5625 21.8125 -8.5625 21.8125 -12 21 C-14 18 -14 18 -13.8125 14.4375 C-13 11 -13 11 -10 9 C-7.95703125 8.5859375 -7.95703125 8.5859375 -5.8125 8.375 C-4.554375 8.25125 -3.29625 8.1275 -2 8 C-2.33 7.01 -2.66 6.02 -3 5 C-6.62528568 4.79859524 -8.86501708 5.14223235 -12 7 C-12.33 5.68 -12.66 4.36 -13 3 C-9.44758863 -0.70686403 -4.8468196 -1.0837079 0 0 Z " fill="#ECEDEE" transform="translate(321,27)"/>
<path d="M0 0 C3 0 6 0 9 0 C10.7015625 -0.12375 10.7015625 -0.12375 12.4375 -0.25 C16 0 16 0 18.20703125 1.4375 C20.88512957 5.26502179 20.4348035 8.70099065 20.25 13.25 C20.23195313 14.09046875 20.21390625 14.9309375 20.1953125 15.796875 C20.14830798 17.86507395 20.07656724 19.93268441 20 22 C18.02 22 16.04 22 14 22 C13.67 16.39 13.34 10.78 13 5 C11.02 5 9.04 5 7 5 C6.67 10.61 6.34 16.22 6 22 C4.02 22 2.04 22 0 22 C0 14.74 0 7.48 0 0 Z " fill="#E2E3E5" transform="translate(283,27)"/>
<path d="M0 0 C0.33 0 0.66 0 1 0 C1.495 4.95 1.495 4.95 2 10 C0.783125 10.28875 -0.43375 10.5775 -1.6875 10.875 C-6.50530488 12.01511466 -6.50530488 12.01511466 -11 14 C-11.89386164 16.54775306 -11.89386164 16.54775306 -12 19 C-18.43013467 20.73955334 -24.34949576 21.24991456 -31 21 C-33.0078125 17.2421875 -33.0078125 17.2421875 -32.9375 15.0625 C-31.57618896 12.06761571 -29.39327587 10.20917772 -27 8 C-22.88213914 9.45336266 -19.62014091 11.58657273 -16 14 C-15.34 14 -14.68 14 -14 14 C-12.37643654 12.03062339 -10.86440434 10.06654852 -9.375 8 C-8.95476563 7.42765625 -8.53453125 6.8553125 -8.1015625 6.265625 C-7.06194199 4.84796067 -6.03022409 3.42450738 -5 2 C-2.525 2.495 -2.525 2.495 0 3 C0 2.01 0 1.02 0 0 Z " fill="#984A01" transform="translate(60,35)"/>
<path d="M0 0 C1.65 0 3.3 0 5 0 C5.33 5.28 5.66 10.56 6 16 C7.98 16.33 9.96 16.66 12 17 C12.33 11.39 12.66 5.78 13 0 C14.98 0 16.96 0 19 0 C19 7.26 19 14.52 19 22 C17.35 22 15.7 22 14 22 C13.67 21.01 13.34 20.02 13 19 C12.62875 19.495 12.2575 19.99 11.875 20.5 C9.1984132 22.64126944 7.33938377 22.34785248 4 22 C1 20 1 20 0 17 C-0.07973476 15.66474283 -0.10771338 14.32587917 -0.09765625 12.98828125 C-0.09443359 12.23095703 -0.09121094 11.47363281 -0.08789062 10.69335938 C-0.07951172 9.90767578 -0.07113281 9.12199219 -0.0625 8.3125 C-0.05798828 7.51521484 -0.05347656 6.71792969 -0.04882812 5.89648438 C-0.0370585 3.93095743 -0.01912348 1.96546915 0 0 Z " fill="#EEEEF0" transform="translate(196,27)"/>
<path d="M0 0 C7.26 0 14.52 0 22 0 C22 1.65 22 3.3 22 5 C19.03 5 16.06 5 13 5 C13 12.59 13 20.18 13 28 C11.35 28 9.7 28 8 28 C8 20.41 8 12.82 8 5 C5.36 5 2.72 5 0 5 C0 3.35 0 1.7 0 0 Z " fill="#F6F6F7" transform="translate(146,20)"/>
<path d="M0 0 C1.98 0 3.96 0 6 0 C6 8.58 6 17.16 6 26 C6.99 26 7.98 26 9 26 C9 27.65 9 29.3 9 31 C6.1875 31.25 6.1875 31.25 3 31 C0.64066124 28.72324667 0.03962201 27.34117536 -0.34057617 24.06738281 C-0.32486572 22.95717773 -0.30915527 21.84697266 -0.29296875 20.703125 C-0.28330078 19.49785156 -0.27363281 18.29257812 -0.26367188 17.05078125 C-0.23853516 15.79652344 -0.21339844 14.54226562 -0.1875 13.25 C-0.17396484 11.98027344 -0.16042969 10.71054687 -0.14648438 9.40234375 C-0.1111324 6.26780156 -0.06178248 3.13411455 0 0 Z " fill="#E2E3E5" transform="translate(342,18)"/>
<path d="M0 0 C3.6578218 2.03993908 5.66946174 3.50419262 8 7 C4.1767489 10.72766983 1.372648 12.82344257 -4.0390625 13.20703125 C-7.43110795 12.84890693 -9.47261942 11.16632621 -12 9 C-12.66 8.01 -13.32 7.02 -14 6 C-6.21789194 -0.59787422 -6.21789194 -0.59787422 0 0 Z " fill="#DAD9D8" transform="translate(63,46)"/>
<path d="M0 0 C1.98 0 3.96 0 6 0 C6 9.57 6 19.14 6 29 C4.02 29 2.04 29 0 29 C0 19.43 0 9.86 0 0 Z " fill="#E9EAEC" transform="translate(121,20)"/>
<path d="M0 0 C-0.33 3.3 -0.66 6.6 -1 10 C-2.32 9.67 -3.64 9.34 -5 9 C-7.24522717 10.63788102 -7.24522717 10.63788102 -9.25 12.9375 C-9.95640625 13.68902344 -10.6628125 14.44054688 -11.390625 15.21484375 C-12.18726563 16.09849609 -12.18726563 16.09849609 -13 17 C-12.01 17.66 -11.02 18.32 -10 19 C-16.4 19.49230769 -16.4 19.49230769 -19.4375 17 C-19.953125 16.34 -20.46875 15.68 -21 15 C-21.598125 15.33 -22.19625 15.66 -22.8125 16 C-25 17 -25 17 -28 17 C-26.84826645 14.53199953 -25.95216435 12.95216435 -24 11 C-21.625 11.375 -21.625 11.375 -19 12 C-14.62406471 12.01241196 -14.62406471 12.01241196 -11.6875 9.3125 C-10.10965734 7.73705845 -10.10965734 7.73705845 -9 6 C-8.95902218 3.18583884 -8.95902218 3.18583884 -10 1 C-6.61981469 -0.04005702 -3.5219721 -0.08004482 0 0 Z " fill="#ED8A01" transform="translate(68,8)"/>
<path d="M0 0 C0.33 0 0.66 0 1 0 C1.90272982 6.99615611 2.06257831 13.84714773 1.9375 20.8984375 C2.00566065 24.55014533 2.00566065 24.55014533 3 28 C3.99 28.66 4.98 29.32 6 30 C4.35 29.67 2.7 29.34 1 29 C-0.32 23.39 -1.64 17.78 -3 12 C-3.33 14.64 -3.66 17.28 -4 20 C-6.02350324 16.96474514 -6.32124018 15.80573798 -6.625 12.3125 C-6.69976563 11.50425781 -6.77453125 10.69601563 -6.8515625 9.86328125 C-6.90054687 9.24839844 -6.94953125 8.63351563 -7 8 C-6.01 7.67 -5.02 7.34 -4 7 C-3.26676204 4.98491642 -3.26676204 4.98491642 -3 3 C-2.01 3 -1.02 3 0 3 C0 2.01 0 1.02 0 0 Z " fill="#643102" transform="translate(24,30)"/>
<path d="M0 0 C1.65 0 3.3 0 5 0 C5 7.26 5 14.52 5 22 C3.35 22 1.7 22 0 22 C0 14.74 0 7.48 0 0 Z " fill="#F7F7F8" transform="translate(331,27)"/>
<path d="M0 0 C4.75 0.75 4.75 0.75 7 3 C7.31537716 7.33643601 7.44897847 9.32653229 5 13 C2 13.375 2 13.375 -1 13 C-3.32579101 9.51131349 -3.41865457 8.10281481 -3 4 C-1.5 1.625 -1.5 1.625 0 0 Z " fill="#141C2F" transform="translate(266,31)"/>
<path d="M0 0 C6.27 0 12.54 0 19 0 C19 1.65 19 3.3 19 5 C12.73 5 6.46 5 0 5 C0 3.35 0 1.7 0 0 Z " fill="#D6D7DB" transform="translate(130,50)"/>
<path d="M0 0 C0.33 0 0.66 0 1 0 C1.33 3.3 1.66 6.6 2 10 C0.2365625 10.433125 0.2365625 10.433125 -1.5625 10.875 C-5.4018927 11.83313721 -9.2013318 12.89205511 -13 14 C-11.59023295 10.96147295 -9.91129772 8.4060405 -7.875 5.75 C-7.33617187 5.04359375 -6.79734375 4.3371875 -6.2421875 3.609375 C-5.83226562 3.07828125 -5.42234375 2.5471875 -5 2 C-3.35 2.33 -1.7 2.66 0 3 C0 2.01 0 1.02 0 0 Z " fill="#BE5E02" transform="translate(60,35)"/>
<path d="M0 0 C4.10958767 1.45044271 7.43258745 3.51110752 11 6 C8.22957891 8.77042109 6.23466195 8.39796106 2.375 8.625 C1.18648437 8.69976562 -0.00203125 8.77453125 -1.2265625 8.8515625 C-2.59941406 8.92503906 -2.59941406 8.92503906 -4 9 C-4.33 9.99 -4.66 10.98 -5 12 C-5.875 9.375 -5.875 9.375 -6 6 C-4.28397113 3.65564056 -2.24331907 1.8336695 0 0 Z " fill="#AF5401" transform="translate(33,43)"/>
<path d="M0 0 C3 0.25 3 0.25 5 2.25 C4.43181818 7.81818182 4.43181818 7.81818182 3 9.25 C0.0625 9.4375 0.0625 9.4375 -3 9.25 C-5 7.25 -5 7.25 -5.25 4.75 C-4.86630891 0.91308908 -3.76694968 0.31391247 0 0 Z " fill="#633C0A" transform="translate(60,47.75)"/>
<path d="M0 0 C-2.64 1.98 -5.28 3.96 -8 6 C-7.34 7.32 -6.68 8.64 -6 10 C-8.3736397 10.50734284 -10.74857425 11.00602386 -13.125 11.5 C-14.12273438 11.71462891 -14.12273438 11.71462891 -15.140625 11.93359375 C-19.16056422 12.7612283 -22.89904899 13.15330658 -27 13 C-23.91190305 11.23537317 -22.76687864 11 -19 11 C-19 10.34 -19 9.68 -19 9 C-14.545 8.505 -14.545 8.505 -10 8 C-10 6.02 -10 4.04 -10 2 C-8.71211992 1.46987262 -7.41953322 0.9511671 -6.125 0.4375 C-5.40570313 0.14746094 -4.68640625 -0.14257812 -3.9453125 -0.44140625 C-2 -1 -2 -1 0 0 Z " fill="#341A04" transform="translate(58,46)"/>
<path d="M0 0 C3.40312738 1.05875074 6.01353231 2.00902154 9 4 C7.61122646 7.35620271 6.08322035 9.07298728 3 11 C2.34 11 1.68 11 1 11 C0.67 7.37 0.34 3.74 0 0 Z " fill="#FDF5EC" transform="translate(40,35)"/>
<path d="M0 0 C4.34072171 0.37206186 8.07415115 2.22951915 12 4 C11.67 4.66 11.34 5.32 11 6 C11.99 6.66 12.98 7.32 14 8 C7.6 8.49230769 7.6 8.49230769 4.5625 6 C4.046875 5.34 3.53125 4.68 3 4 C2.401875 4.33 1.80375 4.66 1.1875 5 C-1 6 -1 6 -4 6 C-2.84826645 3.53199953 -1.95216435 1.95216435 0 0 Z " fill="#D06601" transform="translate(44,19)"/>
<path d="M0 0 C0.66 0 1.32 0 2 0 C2 3.96 2 7.92 2 12 C1.34 11.01 0.68 10.02 0 9 C-0.33 11.64 -0.66 14.28 -1 17 C-3.02350324 13.96474514 -3.32124018 12.80573798 -3.625 9.3125 C-3.69976563 8.50425781 -3.77453125 7.69601563 -3.8515625 6.86328125 C-3.90054687 6.24839844 -3.94953125 5.63351563 -4 5 C-3.01 4.67 -2.02 4.34 -1 4 C-0.26676204 1.98491642 -0.26676204 1.98491642 0 0 Z " fill="#964B01" transform="translate(21,33)"/>
<path d="M0 0 C0.99 0.33 1.98 0.66 3 1 C2.34 1.66 1.68 2.32 1 3 C0.58320703 5.45769153 0.58320703 5.45769153 1 8 C2.39585785 9.81476003 2.39585785 9.81476003 4 11 C-0.03174806 10.72510809 -1.56894631 10.46508424 -4.375 7.4375 C-5.179375 6.2309375 -5.179375 6.2309375 -6 5 C-1.60546875 0.99609375 -1.60546875 0.99609375 0 0 Z " fill="#EFEEEE" transform="translate(55,47)"/>
<path d="M0 0 C2.3129482 2.3129482 2.49580975 3.47904875 3.125 6.625 C3.29257813 7.44226562 3.46015625 8.25953125 3.6328125 9.1015625 C3.81457031 10.04128906 3.81457031 10.04128906 4 11 C1.69 11 -0.62 11 -3 11 C-2.69078116 9.54096742 -2.37751201 8.08279278 -2.0625 6.625 C-1.88847656 5.81289063 -1.71445313 5.00078125 -1.53515625 4.1640625 C-1 2 -1 2 0 0 Z " fill="#1C2436" transform="translate(103,26)"/>
<path d="M0 0 C3.16115776 1.36983503 3.9927092 1.9890638 6 5 C1.05 5.33 -3.9 5.66 -9 6 C-4.625 1.625 -4.625 1.625 -1 1 C-0.67 0.67 -0.34 0.34 0 0 Z " fill="#2B1501" transform="translate(45,22)"/>
<path d="M0 0 C2.89643598 5.62803414 3.08077837 10.34299349 2.83984375 16.59765625 C3.08993037 20.34895552 4.37347494 22.37347494 7 25 C5.1875 24.9375 5.1875 24.9375 3 24 C0.04824423 18.55060473 -0.39205742 14.18348727 -0.1875 8.0625 C-0.17396484 7.28326172 -0.16042969 6.50402344 -0.14648438 5.70117188 C-0.11150224 3.80047596 -0.05770959 1.90014166 0 0 Z " fill="#401D00" transform="translate(20,38)"/>
<path d="M0 0 C2.125 0.375 2.125 0.375 4 1 C4.625 2.875 4.625 2.875 5 5 C4.34 5.66 3.68 6.32 3 7 C0.875 6.625 0.875 6.625 -1 6 C-1.625 4.125 -1.625 4.125 -2 2 C-1.34 1.34 -0.68 0.68 0 0 Z " fill="#DDDEE1" transform="translate(332,18)"/>
<path d="M0 0 C0.78375 0.04125 1.5675 0.0825 2.375 0.125 C2.045 1.775 1.715 3.425 1.375 5.125 C-0.275 5.455 -1.925 5.785 -3.625 6.125 C-4.25 4.25 -4.25 4.25 -4.625 2.125 C-2.625 0.125 -2.625 0.125 0 0 Z " fill="#1A2234" transform="translate(316.625,38.875)"/>
<path d="M0 0 C2.09970981 3.9171057 2.99334562 7.68576696 4 12 C5.65 12.33 7.3 12.66 9 13 C7.25 14.125 7.25 14.125 5 15 C2.8125 14.3125 2.8125 14.3125 1 13 C-0.00496852 9.98509443 -0.10335303 7.95818308 -0.0625 4.8125 C-0.05347656 3.91144531 -0.04445313 3.01039062 -0.03515625 2.08203125 C-0.02355469 1.39496094 -0.01195313 0.70789062 0 0 Z " fill="#0D0500" transform="translate(22,47)"/>
<path d="M0 0 C-0.33 0.66 -0.66 1.32 -1 2 C-0.01 2.66 0.98 3.32 2 4 C-1.3125 4.25 -1.3125 4.25 -5 4 C-6.9375 2 -6.9375 2 -8 0 C-5.13822943 -1.43088528 -3.06624227 -0.59991697 0 0 Z " fill="#B85D04" transform="translate(56,23)"/>
<path d="M0 0 C1.32 0 2.64 0 4 0 C4 1.65 4 3.3 4 5 C2.35 4.67 0.7 4.34 -1 4 C-0.67 2.68 -0.34 1.36 0 0 Z " fill="#FDBA38" transform="translate(31,33)"/>
<path d="M0 0 C-4.455 2.97 -4.455 2.97 -9 6 C-9.33 4.68 -9.66 3.36 -10 2 C-8.71211992 1.46987262 -7.41953322 0.9511671 -6.125 0.4375 C-5.40570313 0.14746094 -4.68640625 -0.14257812 -3.9453125 -0.44140625 C-2 -1 -2 -1 0 0 Z " fill="#51361E" transform="translate(58,46)"/>
</svg>
